<mxfile host="app.diagrams.net" agent="Mozilla/5.0 (Macintosh; Intel Mac OS X 10_15_7) AppleWebKit/605.1.15 (KHTML, like Gecko) Version/18.4 Safari/605.1.15" version="27.0.5">
  <diagram name="Page-1" id="dRAad-emF3YqctehCNyq">
    <mxGraphModel dx="1094" dy="708" grid="1" gridSize="10" guides="1" tooltips="1" connect="1" arrows="1" fold="1" page="1" pageScale="1" pageWidth="583" pageHeight="413" background="light-dark(#FFFFFF,#FFFFFF)" math="0" shadow="0">
      <root>
        <mxCell id="0" />
        <mxCell id="1" parent="0" />
        <mxCell id="xUKobpXKva3Fc0vUzqh_-1" value="" style="rounded=1;whiteSpace=wrap;html=1;fillColor=light-dark(#FFFFFF,#FFFFFF);perimeterSpacing=2;strokeWidth=1;strokeColor=light-dark(#000000,#000000);" vertex="1" parent="1">
          <mxGeometry x="365" y="120" width="120" height="60" as="geometry" />
        </mxCell>
        <mxCell id="xUKobpXKva3Fc0vUzqh_-2" value="&lt;span style=&quot;color: light-dark(rgb(0, 0, 0), rgb(0, 0, 0));&quot;&gt;Start&lt;/span&gt;" style="text;html=1;align=center;verticalAlign=middle;whiteSpace=wrap;rounded=0;" vertex="1" parent="1">
          <mxGeometry x="395" y="135" width="60" height="30" as="geometry" />
        </mxCell>
        <mxCell id="xUKobpXKva3Fc0vUzqh_-62" value="" style="edgeStyle=orthogonalEdgeStyle;rounded=0;orthogonalLoop=1;jettySize=auto;html=1;strokeColor=light-dark(#000000,#000000);" edge="1" parent="1" source="xUKobpXKva3Fc0vUzqh_-3" target="xUKobpXKva3Fc0vUzqh_-45">
          <mxGeometry relative="1" as="geometry" />
        </mxCell>
        <mxCell id="xUKobpXKva3Fc0vUzqh_-3" value="" style="rounded=0;whiteSpace=wrap;html=1;fillColor=light-dark(#FFFFFF,#E65052);strokeColor=light-dark(#000000,#000000);" vertex="1" parent="1">
          <mxGeometry x="525" y="230" width="145" height="60" as="geometry" />
        </mxCell>
        <mxCell id="xUKobpXKva3Fc0vUzqh_-4" value="&lt;span style=&quot;color: light-dark(rgb(0, 0, 0), rgb(0, 0, 0));&quot;&gt;&lt;b&gt;MIDI to Note Vector&lt;/b&gt;&lt;/span&gt;" style="text;html=1;align=center;verticalAlign=middle;whiteSpace=wrap;rounded=0;" vertex="1" parent="1">
          <mxGeometry x="537.5" y="245" width="120" height="30" as="geometry" />
        </mxCell>
        <mxCell id="xUKobpXKva3Fc0vUzqh_-5" value="" style="endArrow=classic;html=1;rounded=0;strokeColor=light-dark(#000000,#000000);entryX=0;entryY=0.5;entryDx=0;entryDy=0;exitX=1;exitY=0.5;exitDx=0;exitDy=0;" edge="1" parent="1" source="xUKobpXKva3Fc0vUzqh_-9" target="xUKobpXKva3Fc0vUzqh_-3">
          <mxGeometry width="50" height="50" relative="1" as="geometry">
            <mxPoint x="465" y="300" as="sourcePoint" />
            <mxPoint x="515" y="250" as="targetPoint" />
          </mxGeometry>
        </mxCell>
        <mxCell id="xUKobpXKva3Fc0vUzqh_-9" value="" style="shape=parallelogram;perimeter=parallelogramPerimeter;whiteSpace=wrap;html=1;fixedSize=1;fillColor=light-dark(#216E8A,#DD3D57);strokeColor=light-dark(#000000,#000000);" vertex="1" parent="1">
          <mxGeometry x="365" y="220" width="120" height="80" as="geometry" />
        </mxCell>
        <mxCell id="xUKobpXKva3Fc0vUzqh_-10" value="" style="endArrow=classic;html=1;rounded=0;strokeColor=light-dark(#000000,#121212);exitX=0.5;exitY=1;exitDx=0;exitDy=0;entryX=0.5;entryY=0;entryDx=0;entryDy=0;" edge="1" parent="1" source="xUKobpXKva3Fc0vUzqh_-1" target="xUKobpXKva3Fc0vUzqh_-9">
          <mxGeometry width="50" height="50" relative="1" as="geometry">
            <mxPoint x="575" y="270" as="sourcePoint" />
            <mxPoint x="625" y="220" as="targetPoint" />
          </mxGeometry>
        </mxCell>
        <mxCell id="xUKobpXKva3Fc0vUzqh_-11" value="&lt;font&gt;&lt;span style=&quot;caret-color: rgb(28, 28, 28); color: light-dark(rgb(28, 28, 28), rgb(0, 0, 0));&quot;&gt;&lt;b&gt;MIDI Files&lt;/b&gt;&lt;/span&gt;&lt;/font&gt;" style="text;html=1;align=center;verticalAlign=middle;whiteSpace=wrap;rounded=0;" vertex="1" parent="1">
          <mxGeometry x="395" y="245" width="60" height="30" as="geometry" />
        </mxCell>
        <mxCell id="xUKobpXKva3Fc0vUzqh_-31" value="" style="endArrow=classic;html=1;rounded=0;exitX=0.5;exitY=1;exitDx=0;exitDy=0;entryX=0.5;entryY=1;entryDx=0;entryDy=0;strokeColor=light-dark(#000000,#000000);" edge="1" parent="1" source="xUKobpXKva3Fc0vUzqh_-23">
          <mxGeometry width="50" height="50" relative="1" as="geometry">
            <mxPoint x="675" y="670" as="sourcePoint" />
            <mxPoint x="415" y="620" as="targetPoint" />
            <Array as="points">
              <mxPoint x="675" y="660" />
              <mxPoint x="415" y="660" />
            </Array>
          </mxGeometry>
        </mxCell>
        <mxCell id="xUKobpXKva3Fc0vUzqh_-32" value="" style="rounded=1;whiteSpace=wrap;html=1;fillColor=light-dark(#FFFFFF,#FFFFFF);perimeterSpacing=2;strokeWidth=1;strokeColor=light-dark(#000000,#000000);" vertex="1" parent="1">
          <mxGeometry x="537.5" y="670" width="120" height="60" as="geometry" />
        </mxCell>
        <mxCell id="xUKobpXKva3Fc0vUzqh_-33" value="&lt;span style=&quot;color: light-dark(rgb(0, 0, 0), rgb(0, 0, 0));&quot;&gt;End&lt;/span&gt;" style="text;html=1;align=center;verticalAlign=middle;whiteSpace=wrap;rounded=0;" vertex="1" parent="1">
          <mxGeometry x="567.5" y="685" width="60" height="30" as="geometry" />
        </mxCell>
        <mxCell id="xUKobpXKva3Fc0vUzqh_-44" value="" style="rounded=0;whiteSpace=wrap;html=1;fillColor=light-dark(#FFFFFF,#F5664A);strokeColor=light-dark(#000000,#000000);" vertex="1" parent="1">
          <mxGeometry x="695" y="230" width="145" height="60" as="geometry" />
        </mxCell>
        <mxCell id="xUKobpXKva3Fc0vUzqh_-45" value="&lt;span style=&quot;color: light-dark(rgb(0, 0, 0), rgb(0, 0, 0));&quot;&gt;&lt;b&gt;Note Sequences&lt;/b&gt;&lt;/span&gt;&lt;div&gt;&lt;span style=&quot;color: light-dark(rgb(0, 0, 0), rgb(0, 0, 0));&quot;&gt;&lt;i&gt;&lt;font style=&quot;font-size: 7px;&quot;&gt;(Nx32x4)&lt;/font&gt;&lt;/i&gt;&lt;/span&gt;&lt;/div&gt;" style="text;html=1;align=center;verticalAlign=middle;whiteSpace=wrap;rounded=0;" vertex="1" parent="1">
          <mxGeometry x="707.5" y="245" width="120" height="30" as="geometry" />
        </mxCell>
        <mxCell id="xUKobpXKva3Fc0vUzqh_-69" value="" style="edgeStyle=orthogonalEdgeStyle;rounded=0;orthogonalLoop=1;jettySize=auto;html=1;strokeColor=light-dark(#000000,#000000);entryX=0.833;entryY=0.467;entryDx=0;entryDy=0;entryPerimeter=0;" edge="1" parent="1" source="xUKobpXKva3Fc0vUzqh_-46" target="xUKobpXKva3Fc0vUzqh_-53">
          <mxGeometry relative="1" as="geometry">
            <Array as="points" />
          </mxGeometry>
        </mxCell>
        <mxCell id="xUKobpXKva3Fc0vUzqh_-70" value="" style="edgeStyle=orthogonalEdgeStyle;rounded=0;orthogonalLoop=1;jettySize=auto;html=1;strokeColor=light-dark(#000000,#000000);entryX=0.5;entryY=0;entryDx=0;entryDy=0;exitX=0.5;exitY=1;exitDx=0;exitDy=0;" edge="1" parent="1" source="xUKobpXKva3Fc0vUzqh_-44" target="xUKobpXKva3Fc0vUzqh_-48">
          <mxGeometry relative="1" as="geometry">
            <mxPoint x="598" y="410" as="targetPoint" />
            <Array as="points">
              <mxPoint x="768" y="390" />
              <mxPoint x="598" y="390" />
            </Array>
          </mxGeometry>
        </mxCell>
        <mxCell id="xUKobpXKva3Fc0vUzqh_-46" value="" style="rounded=0;whiteSpace=wrap;html=1;fillColor=light-dark(#FFFFFF,#FB7F4B);strokeColor=light-dark(#000000,#000000);" vertex="1" parent="1">
          <mxGeometry x="547.5" y="310" width="200" height="60" as="geometry" />
        </mxCell>
        <mxCell id="xUKobpXKva3Fc0vUzqh_-47" value="&lt;span style=&quot;color: light-dark(rgb(0, 0, 0), rgb(0, 0, 0));&quot;&gt;&lt;b&gt;Generator&lt;/b&gt;&lt;/span&gt;" style="text;html=1;align=center;verticalAlign=middle;whiteSpace=wrap;rounded=0;" vertex="1" parent="1">
          <mxGeometry x="587.5" y="325" width="120" height="30" as="geometry" />
        </mxCell>
        <mxCell id="xUKobpXKva3Fc0vUzqh_-73" value="" style="edgeStyle=orthogonalEdgeStyle;rounded=0;orthogonalLoop=1;jettySize=auto;html=1;strokeColor=light-dark(#000000,#000000);entryX=0.512;entryY=0.008;entryDx=0;entryDy=0;entryPerimeter=0;" edge="1" parent="1" source="xUKobpXKva3Fc0vUzqh_-48" target="xUKobpXKva3Fc0vUzqh_-56">
          <mxGeometry relative="1" as="geometry" />
        </mxCell>
        <mxCell id="xUKobpXKva3Fc0vUzqh_-48" value="" style="rounded=0;whiteSpace=wrap;html=1;fillColor=light-dark(#FFFFFF,#FDBE3C);strokeColor=light-dark(#000000,#000000);" vertex="1" parent="1">
          <mxGeometry x="500" y="413" width="195" height="60" as="geometry" />
        </mxCell>
        <mxCell id="xUKobpXKva3Fc0vUzqh_-49" value="&lt;span style=&quot;color: light-dark(rgb(0, 0, 0), rgb(0, 0, 0));&quot;&gt;&lt;b&gt;Discriminator&lt;/b&gt;&lt;/span&gt;" style="text;html=1;align=center;verticalAlign=middle;whiteSpace=wrap;rounded=0;" vertex="1" parent="1">
          <mxGeometry x="537.5" y="428" width="120" height="30" as="geometry" />
        </mxCell>
        <mxCell id="xUKobpXKva3Fc0vUzqh_-72" value="" style="edgeStyle=orthogonalEdgeStyle;rounded=0;orthogonalLoop=1;jettySize=auto;html=1;entryX=0;entryY=0.5;entryDx=0;entryDy=0;strokeColor=light-dark(#000000,#000000);" edge="1" parent="1" source="xUKobpXKva3Fc0vUzqh_-52" target="xUKobpXKva3Fc0vUzqh_-48">
          <mxGeometry relative="1" as="geometry" />
        </mxCell>
        <mxCell id="xUKobpXKva3Fc0vUzqh_-52" value="" style="shape=parallelogram;perimeter=parallelogramPerimeter;whiteSpace=wrap;html=1;fixedSize=1;fillColor=light-dark(#FFFFFF,#FD9E44);strokeColor=light-dark(#000000,#050505);" vertex="1" parent="1">
          <mxGeometry x="419" y="317" width="100" height="50" as="geometry" />
        </mxCell>
        <mxCell id="xUKobpXKva3Fc0vUzqh_-53" value="&lt;span style=&quot;color: light-dark(rgb(0, 0, 0), rgb(0, 0, 0));&quot;&gt;&lt;b&gt;&lt;font style=&quot;font-size: 10px;&quot;&gt;Generated&amp;nbsp;&lt;/font&gt;&lt;/b&gt;&lt;/span&gt;&lt;div&gt;&lt;span style=&quot;color: light-dark(rgb(0, 0, 0), rgb(0, 0, 0));&quot;&gt;&lt;b&gt;&lt;font style=&quot;font-size: 10px;&quot;&gt;Sequences&lt;/font&gt;&lt;/b&gt;&lt;/span&gt;&lt;/div&gt;" style="text;html=1;align=center;verticalAlign=middle;whiteSpace=wrap;rounded=0;" vertex="1" parent="1">
          <mxGeometry x="410" y="326" width="120" height="30" as="geometry" />
        </mxCell>
        <mxCell id="xUKobpXKva3Fc0vUzqh_-74" value="" style="edgeStyle=orthogonalEdgeStyle;rounded=0;orthogonalLoop=1;jettySize=auto;html=1;entryX=0.488;entryY=-0.012;entryDx=0;entryDy=0;entryPerimeter=0;strokeColor=light-dark(#000000,#000000);" edge="1" parent="1" source="xUKobpXKva3Fc0vUzqh_-56" target="xUKobpXKva3Fc0vUzqh_-59">
          <mxGeometry relative="1" as="geometry" />
        </mxCell>
        <mxCell id="xUKobpXKva3Fc0vUzqh_-56" value="" style="rounded=0;whiteSpace=wrap;html=1;fillColor=light-dark(#FFFFFF,#FCD633);strokeColor=light-dark(#000000,#000000);" vertex="1" parent="1">
          <mxGeometry x="495" y="500" width="200" height="60" as="geometry" />
        </mxCell>
        <mxCell id="xUKobpXKva3Fc0vUzqh_-57" value="&lt;span style=&quot;color: light-dark(rgb(0, 0, 0), rgb(0, 0, 0));&quot;&gt;&lt;b&gt;Evaluation&lt;/b&gt;&lt;/span&gt;&lt;div&gt;&lt;span style=&quot;color: light-dark(rgb(0, 0, 0), rgb(0, 0, 0));&quot;&gt;&lt;font style=&quot;font-size: 7px;&quot;&gt;&lt;i&gt;Discriminator and Generator Loss&lt;/i&gt;&lt;/font&gt;&lt;/span&gt;&lt;/div&gt;" style="text;html=1;align=center;verticalAlign=middle;whiteSpace=wrap;rounded=0;" vertex="1" parent="1">
          <mxGeometry x="540" y="514" width="120" height="30" as="geometry" />
        </mxCell>
        <mxCell id="xUKobpXKva3Fc0vUzqh_-75" value="" style="edgeStyle=orthogonalEdgeStyle;rounded=0;orthogonalLoop=1;jettySize=auto;html=1;strokeColor=light-dark(#000000,#000000);entryX=0.503;entryY=0.015;entryDx=0;entryDy=0;entryPerimeter=0;" edge="1" parent="1" source="xUKobpXKva3Fc0vUzqh_-59" target="xUKobpXKva3Fc0vUzqh_-32">
          <mxGeometry relative="1" as="geometry">
            <mxPoint x="598" y="670" as="targetPoint" />
            <Array as="points">
              <mxPoint x="598" y="669" />
              <mxPoint x="598" y="669" />
            </Array>
          </mxGeometry>
        </mxCell>
        <mxCell id="xUKobpXKva3Fc0vUzqh_-59" value="" style="rounded=0;whiteSpace=wrap;html=1;fillColor=light-dark(#FFFFFF,#FDEA2C);strokeColor=light-dark(#000000,#000000);" vertex="1" parent="1">
          <mxGeometry x="497.5" y="589" width="200" height="60" as="geometry" />
        </mxCell>
        <mxCell id="xUKobpXKva3Fc0vUzqh_-60" value="&lt;span style=&quot;color: light-dark(rgb(0, 0, 0), rgb(0, 0, 0));&quot;&gt;&lt;b&gt;MIDI Generation&lt;/b&gt;&lt;/span&gt;" style="text;html=1;align=center;verticalAlign=middle;whiteSpace=wrap;rounded=0;" vertex="1" parent="1">
          <mxGeometry x="540" y="604" width="120" height="30" as="geometry" />
        </mxCell>
      </root>
    </mxGraphModel>
  </diagram>
</mxfile>
